<svg xmlns="http://www.w3.org/2000/svg" viewBox="0 0 64 64">
  <defs>
    <linearGradient id="bg" x1="0" x2="1" y1="0" y2="1">
      <stop offset="0" stop-color="#0d2c56" />
      <stop offset="1" stop-color="#071223" />
    </linearGradient>
    <linearGradient id="line" x1="0" x2="1" y1="0" y2="1">
      <stop offset="0" stop-color="#d7f0ff" />
      <stop offset="1" stop-color="#7ec8ff" />
    </linearGradient>
  </defs>
  <rect width="64" height="64" rx="16" fill="url(#bg)" />
  <circle cx="32" cy="32" r="20" fill="none" stroke="url(#line)" stroke-width="2.5" />
  <path
    d="M12 32h40M32 12c7 6 10 13 10 20s-3 14-10 20c-7-6-10-13-10-20s3-14 10-20Z"
    fill="none"
    stroke="url(#line)"
    stroke-width="2.5"
    stroke-linecap="round"
    stroke-linejoin="round"
  />
  <path
    d="M18 22c4 3 9 4 14 4s10-1 14-4M18 42c4-3 9-4 14-4s10 1 14 4"
    fill="none"
    stroke="url(#line)"
    stroke-width="2.5"
    stroke-linecap="round"
  />
</svg>
